HIERARCHY
ROOT Hips
{
  OFFSET 52.3662 95.7348 31.631
  CHANNELS 6 Xposition Yposition Zposition Zrotation Xrotation Yrotation
  JOINT spine
  {
    OFFSET 0 7.96568 0.458067
    CHANNELS 3 Zrotation Xrotation Yrotation
    JOINT spine1
    {
      OFFSET 0 10.2431 0
      CHANNELS 3 Zrotation Xrotation Yrotation
      JOINT spine2
      {
        OFFSET 0 9.81475 0
        CHANNELS 3 Zrotation Xrotation Yrotation
        JOINT Neck
        {
          OFFSET 0 25.1986 1.20138
          CHANNELS 3 Zrotation Xrotation Yrotation
          JOINT Head
          {
            OFFSET 0 7.61315 0
            CHANNELS 3 Zrotation Xrotation Yrotation
            End Site
            {
              OFFSET 0 18.4281 -6.07733
            }
          }
        }
        JOINT RightShoulder
        {
          OFFSET -4.1327 10.5992 -0.575451
          CHANNELS 3 Zrotation Xrotation Yrotation
          JOINT RightArm
          {
            OFFSET 0 13.9018 0
            CHANNELS 3 Zrotation Xrotation Yrotation
            JOINT RightArmRoll
            {
              OFFSET 0 7.01789 0
              CHANNELS 3 Zrotation Xrotation Yrotation
              JOINT RightForeArm
              {
                OFFSET 0 20.4406 0
                CHANNELS 3 Zrotation Xrotation Yrotation
                JOINT RightForeArmRoll
                {
                  OFFSET 0 7.87516 0
                  CHANNELS 3 Zrotation Xrotation Yrotation
                  JOINT RightHand
                  {
                    OFFSET 0 15.8037 0
                    CHANNELS 3 Zrotation Xrotation Yrotation
                    End Site
                    {
                      OFFSET 0 0 0
                    }
                  }
                }
              }
            }
          }
        }
        JOINT LeftShoulder
        {
          OFFSET 4.1327 10.5992 -0.575451
          CHANNELS 3 Zrotation Xrotation Yrotation
          JOINT LeftArm
          {
            OFFSET 0 13.9018 0
            CHANNELS 3 Zrotation Xrotation Yrotation
            JOINT LeftArmRoll
            {
              OFFSET 0 7.01788 0
              CHANNELS 3 Zrotation Xrotation Yrotation
              JOINT LeftForeArm
              {
                OFFSET 0 20.4406 0
                CHANNELS 3 Zrotation Xrotation Yrotation
                JOINT LeftForeArmRoll
                {
                  OFFSET 0 7.87516 0
                  CHANNELS 3 Zrotation Xrotation Yrotation
                  JOINT LeftHand
                  {
                    OFFSET 0 15.8037 0
                    CHANNELS 3 Zrotation Xrotation Yrotation
                    End Site
                    {
                      OFFSET 0 0 0
                    }
                  }
                }
              }
            }
          }
        }
      }
    }
  }
  JOINT RightUpLeg
  {
    OFFSET -7.06048 -1.2947 -1.0861
    CHANNELS 3 Zrotation Xrotation Yrotation
    JOINT RightUpLegRoll
    {
      OFFSET 0 18.5308 0
      CHANNELS 3 Zrotation Xrotation Yrotation
      JOINT RightLeg
      {
        OFFSET 0 -22.9476 0
        CHANNELS 3 Zrotation Xrotation Yrotation
        JOINT RightLegRoll
        {
          OFFSET 0 23.0226 0
          CHANNELS 3 Zrotation Xrotation Yrotation
          JOINT RightFoot
          {
            OFFSET 0 19.1625 0
            CHANNELS 3 Zrotation Xrotation Yrotation
            JOINT RightToeBase
            {
              OFFSET 0 16.0188 0
              CHANNELS 3 Zrotation Xrotation Yrotation
              End Site
              {
                OFFSET 0.00678979 7.75782 -0.894207
              }
            }
          }
        }
      }
    }
  }
  JOINT LeftUpLeg
  {
    OFFSET 7.06048 -1.2947 -1.0861
    CHANNELS 3 Zrotation Xrotation Yrotation
    JOINT LeftUpLegRoll
    {
      OFFSET 0 18.5309 0
      CHANNELS 3 Zrotation Xrotation Yrotation
      JOINT LeftLeg
      {
        OFFSET 0 22.9475 0
        CHANNELS 3 Zrotation Xrotation Yrotation
        JOINT LeftLegRoll
        {
          OFFSET 0 23.2355 0
          CHANNELS 3 Zrotation Xrotation Yrotation
          JOINT LeftFoot
          {
            OFFSET 0 18.9496 0
            CHANNELS 3 Zrotation Xrotation Yrotation
            JOINT LeftToeBase
            {
              OFFSET 0 16.0188 0
              CHANNELS 3 Zrotation Xrotation Yrotation
              End Site
              {
                OFFSET -0.0304289 7.75781 -0.894207
              }
            }
          }
        }
      }
    }
  }
}
MOTION
Frames: 9
Frame Time: 0.00208333
50.7136 56.7055 -11.4997 2.19332 -3.13998 9.77914 -0.248204 0.63793 -0.230915 -0.492932 5.27197 -0.427545 -0.488706 6.917 -0.419828 -1.04997 4.44194 -2.60101 1.85039 4.88819 -2.73948 64.9469 -2.25989 -1.98434 115.038 35.6533 -11.0575 9.54166e-015 0 1.59028e-015 13.9794 35.6486 -5.98069 5.65355e-007 2.91616e-006 -3.00177 8.02888 -4.95115 0.697588 -68.2734 -1.70924 2.00532 -116.102 38.894 14.6732 -8.64713e-015 -3.18055e-015 -4.57205e-015 -14.3205 33.0286 5.08939 5.51058e-006 5.83625e-006 3.00777 -8.02888 -4.95135 -0.697657 117.896 75.4422 58.2819 180 1.52567e-005 179.052 -134.872 81.5932 135.952 3.03593e-006 -2.08892e-006 1.09461 -8.08639 61.4552 16.2506 8.13554 25.2335 -3.48631 -150.376 81.1622 -29.0583 4.54188e-006 -4.6773e-006 -1.24598 25.3635 -82.32 25.3692 -5.18701e-006 -3.98899e-006 -1.58055 10.234 61.0729 -15.7822 -8.13531 25.2327 3.48723 
50.7161 56.7039 -11.5005 2.19107 -3.12191 9.7793 -0.248742 0.636407 -0.231246 -0.493529 5.26871 -0.428479 -0.489292 6.91373 -0.420753 -1.0433 4.44984 -2.59771 1.83819 4.88946 -2.73563 64.9427 -2.26111 -1.9846 115.044 35.6482 -11.07 -7.95139e-016 -3.18055e-015 -3.18055e-015 13.9841 35.6637 -5.98561 5.65355e-007 2.91616e-006 -3.00177 8.02888 -4.95115 0.697588 -68.2733 -1.71571 2.00859 -116.101 38.8828 14.6821 8.74653e-015 -3.18055e-015 5.56597e-015 -14.3286 33.0591 5.0975 5.51058e-006 5.83625e-006 3.00777 -8.02888 -4.95135 -0.697657 117.836 75.4537 58.3417 180 1.52567e-005 179.053 -134.871 81.5944 135.951 3.03593e-006 -2.08892e-006 1.09458 -8.08677 61.456 16.2504 8.13554 25.2335 -3.48631 -150.343 81.1797 -29.0918 4.54188e-006 -4.6773e-006 -1.24536 25.3647 -82.3203 25.3709 -5.18701e-006 -3.98899e-006 -1.58004 10.2313 61.0711 -15.7817 -8.13531 25.2327 3.48723 
50.7302 56.6957 -11.497 2.18884 -3.10409 9.77946 -0.249275 0.634892 -0.231606 -0.494083 5.26547 -0.429444 -0.489835 6.9105 -0.421711 -1.03677 4.45751 -2.59438 1.82601 4.8904 -2.73177 64.9384 -2.2621 -1.98474 115.05 35.6432 -11.0822 -6.36111e-015 -9.54166e-015 -4.77083e-015 13.9884 35.6782 -5.99034 5.65355e-007 2.91616e-006 -3.00177 8.02888 -4.95115 0.697588 -68.2733 -1.72217 2.01185 -116.101 38.8717 14.6909 -6.06293e-015 0 -2.98177e-015 -14.3365 33.0893 5.10545 5.51058e-006 5.83625e-006 3.00777 -8.02888 -4.95135 -0.697657 117.776 75.465 58.4007 180 1.52567e-005 179.053 -134.872 81.5956 135.951 3.03593e-006 -2.08892e-006 1.09454 -8.08698 61.4567 16.2501 8.13554 25.2335 -3.48631 -150.31 81.197 -29.1245 4.54188e-006 -4.6773e-006 -1.24472 25.3662 -82.3207 25.373 -5.18701e-006 -3.98899e-006 -1.57952 10.2284 61.0691 -15.7812 -8.13531 25.2327 3.48723 
50.725 56.6916 -11.498 2.18662 -3.08646 9.77962 -0.249805 0.633383 -0.231985 -0.494608 5.26226 -0.430432 -0.490349 6.90729 -0.422691 -1.03033 4.46501 -2.59103 1.81384 4.89109 -2.7279 64.9341 -2.26292 -1.98477 115.057 35.6384 -11.0942 7.15625e-015 -3.18055e-015 3.18055e-015 13.9926 35.6922 -5.99495 5.65355e-007 2.91616e-006 -3.00177 8.02888 -4.95115 0.697588 -68.2732 -1.72863 2.01511 -116.101 38.8607 14.6995 -3.8763e-015 -3.18055e-015 -1.78906e-015 -14.3442 33.1191 5.1133 5.51058e-006 5.83625e-006 3.00777 -8.02888 -4.95135 -0.697657 117.717 75.4762 58.4592 180 1.52567e-005 179.054 -134.872 81.5968 135.951 3.03593e-006 -2.08892e-006 1.09449 -8.08706 61.4574 16.2499 8.13554 25.2335 -3.48631 -150.277 81.214 -29.1565 4.54188e-006 -4.6773e-006 -1.24407 25.368 -82.3211 25.3754 -5.18701e-006 -3.98899e-006 -1.57898 10.2254 61.0671 -15.7808 -8.13531 25.2327 3.48723 
50.7397 56.702 -11.551 2.1844 -3.06894 9.77978 -0.250333 0.631877 -0.232376 -0.495116 5.25906 -0.431432 -0.490846 6.90409 -0.423685 -1.02395 4.47243 -2.58767 1.80167 4.89166 -2.72402 64.9297 -2.26365 -1.98476 115.063 35.6336 -11.1061 -2.38542e-015 -3.18055e-015 1.59028e-015 13.9967 35.706 -5.99949 5.65355e-007 2.91616e-006 -3.00177 8.02888 -4.95115 0.697588 -68.2732 -1.7351 2.01838 -116.101 38.8498 14.708 -3.07122e-014 0 -1.64991e-014 -14.3518 33.1489 5.12108 5.51058e-006 5.83625e-006 3.00777 -8.02888 -4.95135 -0.697657 117.657 75.4873 58.5175 180 1.52567e-005 179.054 -134.873 81.598 135.951 3.03593e-006 -2.08892e-006 1.09443 -8.08708 61.4581 16.2496 8.13554 25.2335 -3.48631 -150.245 81.231 -29.1883 4.54188e-006 -4.6773e-006 -1.24342 25.3699 -82.3215 25.3779 -5.18701e-006 -3.98899e-006 -1.57843 10.2223 61.065 -15.7803 -8.13531 25.2327 3.48723 
50.7406 56.7044 -11.5418 2.18218 -3.05144 9.77994 -0.25086 0.630372 -0.232769 -0.495621 5.25587 -0.432436 -0.491339 6.9009 -0.424681 -1.01757 4.47982 -2.5843 1.78951 4.89218 -2.72015 64.9254 -2.26435 -1.98473 115.07 35.6288 -11.1179 1.59028e-015 0 -4.77083e-015 14.0008 35.7197 -6.00402 5.65355e-007 2.91616e-006 -3.00177 8.02888 -4.95115 0.697588 -68.2732 -1.74155 2.02164 -116.1 38.8388 14.7165 -5.86415e-015 9.54166e-015 -2.38542e-015 -14.3595 33.1785 5.12886 5.51058e-006 5.83625e-006 3.00777 -8.02888 -4.95135 -0.697657 117.598 75.4984 58.5758 180 1.52567e-005 179.055 -134.874 81.5993 135.952 3.03593e-006 -2.08892e-006 1.09438 -8.08708 61.4588 16.2493 8.13554 25.2335 -3.48631 -150.213 81.2479 -29.2201 4.54188e-006 -4.6773e-006 -1.24276 25.3719 -82.3219 25.3805 -5.18701e-006 -3.98899e-006 -1.57789 10.2193 61.0628 -15.7798 -8.13531 25.2327 3.48723 
50.7166 56.7077 -11.5777 2.17996 -3.03389 9.7801 -0.251388 0.628865 -0.233157 -0.496133 5.25266 -0.433433 -0.49184 6.8977 -0.425671 -1.01118 4.48726 -2.58094 1.77735 4.89278 -2.71628 64.921 -2.2651 -1.98473 115.076 35.624 -11.1299 -1.59028e-015 -9.54166e-015 -4.77083e-015 14.0049 35.7335 -6.00858 5.65355e-007 2.91616e-006 -3.00177 8.02888 -4.95115 0.697588 -68.2731 -1.74802 2.02491 -116.1 38.8279 14.7251 -3.97569e-016 6.36111e-015 -5.96354e-016 -14.3671 33.2083 5.13667 5.51058e-006 5.83625e-006 3.00777 -8.02888 -4.95135 -0.697657 117.539 75.5095 58.6343 180 1.52567e-005 179.055 -134.875 81.6005 135.952 3.03593e-006 -2.08892e-006 1.09433 -8.08712 61.4594 16.249 8.13554 25.2335 -3.48631 -150.181 81.2649 -29.2523 4.54188e-006 -4.6773e-006 -1.24211 25.3738 -82.3224 25.383 -5.18701e-006 -3.98899e-006 -1.57734 10.2162 61.0608 -15.7793 -8.13531 25.2327 3.48723 
50.725 56.7109 -11.5816 2.17774 -3.01621 9.78026 -0.251919 0.627354 -0.23353 -0.496667 5.24944 -0.434415 -0.492363 6.89448 -0.426645 -1.00471 4.49481 -2.5776 1.76517 4.89354 -2.71241 64.9167 -2.26597 -1.9848 115.083 35.6191 -11.1419 7.15625e-015 -6.36111e-015 3.18055e-015 14.0092 35.7477 -6.01324 5.65355e-007 2.91616e-006 -3.00177 8.02888 -4.95115 0.697588 -68.2731 -1.75448 2.02817 -116.1 38.8169 14.7337 -1.14301e-014 -3.18055e-015 -5.96354e-015 -14.3749 33.2382 5.14458 5.51058e-006 5.83625e-006 3.00777 -8.02888 -4.95135 -0.697657 117.479 75.5206 58.6934 180 1.52567e-005 179.056 -134.875 81.6017 135.952 3.03593e-006 -2.08892e-006 1.09428 -8.08724 61.4602 16.2487 8.13554 25.2335 -3.48631 -150.147 81.282 -29.2851 4.54188e-006 -4.6773e-006 -1.24146 25.3756 -82.3228 25.3853 -5.18701e-006 -3.98899e-006 -1.57681 10.2132 61.0587 -15.7788 -8.13531 25.2327 3.48723 
50.7107 56.6969 -11.5123 2.1755 -2.99831 9.78043 -0.252454 0.625837 -0.233882 -0.497235 5.2462 -0.435371 -0.492919 6.89124 -0.427593 -0.998146 4.50255 -2.57428 1.75298 4.89458 -2.70855 64.9124 -2.26703 -1.98497 115.089 35.614 -11.1542 -1.03368e-014 -6.36111e-015 -6.36111e-015 14.0137 35.7624 -6.01804 5.65355e-007 2.91616e-006 -3.00177 8.02888 -4.95115 0.697588 -68.273 -1.76094 2.03143 -116.1 38.8057 14.7425 -8.74653e-015 0 -4.77083e-015 -14.383 33.2685 5.15262 5.51058e-006 5.83625e-006 3.00777 -8.02888 -4.95135 -0.697657 117.419 75.5319 58.7532 180 1.52567e-005 179.057 -134.875 81.6029 135.952 3.03593e-006 -2.08892e-006 1.09424 -8.0875 61.4609 16.2485 8.13554 25.2335 -3.48631 -150.113 81.2993 -29.3188 4.54188e-006 -4.6773e-006 -1.24083 25.3769 -82.3231 25.3872 -5.18701e-006 -3.98899e-006 -1.57629 10.2104 61.0568 -15.7783 -8.13531 25.2327 3.48723 
